<?xml version="1.0" encoding="UTF-8"?>
<svg width="5003px" height="5002px" viewBox="0 0 5003 5002" version="1.1" xmlns="http://www.w3.org/2000/svg" xmlns:xlink="http://www.w3.org/1999/xlink">
    <!-- Generator: Sketch 48.2 (47327) - http://www.bohemiancoding.com/sketch -->
    <title>aiesec-icon-blue</title>
    <desc>Created with Sketch.</desc>
    <defs></defs>
    <g id="Assets" stroke="none" stroke-width="1" fill="none" fill-rule="evenodd">
        <g id="aiesec-icon-blue" fill-rule="nonzero">
            <rect id="Rectangle-path" fill="#037EF3" x="0.34" y="0" width="5002" height="5002"></rect>
            <path d="M3469.39,4119.99 C3436.3,4122.12 3222.39,4135.21 3193.83,4103.92 C3080.04,3979.28 2962.76,3533.68 2897.3,3395.92 C2860.92,3319.39 2677.96,2691.86 2548.61,2419.54 L2550.79,2248.54 C2550.79,2248.54 2605.07,2270.41 2617.26,2278.19 C2662.68,2307.19 2816.7,2400.53 2881.26,2474.99 C2902.02,2498.94 2934.47,2553.37 2941.12,2564.32 C2969.48,2611.05 3049.12,2609.44 3103.89,2574.83 C3130.45,2558.03 3151.37,2472.62 3081.34,2424.66 C3060.71,2410.53 2990.01,2384.19 2949.93,2350.96 C2922.64,2328.33 2691.42,2120.66 2662.09,2088.83 C2642.92,2068.03 2558.46,1988.83 2558.46,1988.83 C2553.95,1932.05 2526.1,1594.28 2489.56,1448.44 C2470.44,1372.13 2451.45,1322.97 2452.23,1285.44 C2452.83,1256.65 2445.8,1122.29 2510.82,1134.13 C2615.98,1153.29 2675.37,938.9 2662.09,811.4 C2650.73,702.5 2584.4,607 2432.43,607 C2374.15,607 2263.8,664.6 2242.35,761.54 C2215.35,883.71 2241.59,928.91 2242.35,991.09 C2242.56,1008.5 2244.44,1043.45 2242.35,1060.74 C2239.88,1081.2 2225.08,1183.74 2200.87,1211.74 C2167.45,1250.41 2080.31,1301.22 2001.82,1430.45 C1940.6,1531.24 1885.23,1767.92 1843.82,1906.53 C1779.31,2122.53 1745.62,2454.73 1695.72,2537.15 C1660.11,2595.97 1641.93,2658.57 1647.2,2719.43 C1657.83,2842.24 1793.51,2809.74 1820.69,2756.84 C1849.26,2701.23 1846.33,2621.84 1849.93,2582.98 C1859.46,2480.08 2029.14,2017.05 2029.14,2017.05 C2029.14,2017.05 2018.03,2325.05 2013.85,2376.05 C2013.85,2376.05 1980.54,2484.45 1955.27,2636.86 C1943.82,2705.86 1942.73,2767.15 1932.96,2879.59 C1919.26,3037.32 1891.19,3232.64 1859.7,3374.27 C1723.39,3517.27 1648,3779.05 1514.83,3952.36 C1491.89,3982.21 1374.26,4064.49 1455.78,4161.77 C1499.61,4214.07 1588.11,4287.53 1612.22,4308.88 C1624.79,4320.01 1694.22,4387.46 1743.43,4394.09 C1777.21,4398.64 1839.43,4398.09 1845.28,4362.09 C1848.38,4342.88 1777.8,4309.87 1770,4300.19 C1730.71,4251.43 1703,4171.73 1699,4127.7 C1697.11,4106.96 1705.9,4091.24 1712.87,4077.08 C1737.95,4026.08 2013.5,3647.27 2092.44,3509.6 C2174.5,3366.47 2271.87,3034.07 2329.3,2892.9 C2374.92,3033.35 2609.75,3442.23 2716.62,3641.53 C2764.62,3791.53 2843.06,3926.71 2983.72,4181.92 C3008.49,4226.87 3013.72,4331.03 3050.36,4349.49 C3073.93,4361.36 3107.14,4355.1 3169.51,4323.97 C3349.8,4233.97 3576.26,4221.27 3576.25,4177.85 C3576.26,4139.44 3500.78,4117.97 3469.39,4119.99 Z" id="Shape" fill="#FFFFFF"></path>
        </g>
    </g>
</svg>